<svg xmlns="http://www.w3.org/2000/svg" viewBox="0 0 32 32" fill="none">
  <defs>
    <linearGradient id="gradient1" x1="0%" y1="0%" x2="100%" y2="100%">
      <stop offset="0%" style="stop-color:#a855f7;stop-opacity:1" />
      <stop offset="100%" style="stop-color:#ec4899;stop-opacity:1" />
    </linearGradient>
    <linearGradient id="gradient2" x1="0%" y1="100%" x2="100%" y2="0%">
      <stop offset="0%" style="stop-color:#3b82f6;stop-opacity:1" />
      <stop offset="100%" style="stop-color:#06b6d4;stop-opacity:1" />
    </linearGradient>
  </defs>
  
  <!-- Background circle -->
  <circle cx="16" cy="16" r="15" fill="#18181b" stroke="url(#gradient1)" stroke-width="1"/>
  
  <!-- Music note -->
  <path d="M20 8v10.5a3.5 3.5 0 0 1-3.5 3.5 3.5 3.5 0 0 1-3.5-3.5 3.5 3.5 0 0 1 3.5-3.5c.54 0 1.05.12 1.5.34V8l2 0z" fill="url(#gradient1)"/>
  
  <!-- Bar chart visualization -->
  <rect x="8" y="20" width="3" height="4" fill="url(#gradient2)" opacity="0.8"/>
  <rect x="12" y="17" width="3" height="7" fill="url(#gradient2)" opacity="0.8"/>
  <rect x="16" y="14" width="3" height="10" fill="url(#gradient2)" opacity="0.8"/>
  <rect x="20" y="19" width="3" height="5" fill="url(#gradient2)" opacity="0.8"/>
</svg>